<?xml version="1.0" encoding="UTF-8"?><svg id="Calque_2" xmlns="http://www.w3.org/2000/svg" viewBox="0 0 902 889.22"><defs><style>.cls-1{font-family:Adam-Medium, Adam;font-size:78.88px;}.cls-1,.cls-2{fill:#57233a;}.cls-3{fill:none;stroke-width:2px;}.cls-3,.cls-2{stroke:#57233a;stroke-miterlimit:10;}.cls-4{fill:#514148;}</style></defs><g id="Calque_1-2"><g><path class="cls-3" d="M1,444.61c10.1,591.52,889.98,591.43,900-.02-10.1-591.51-889.98-591.41-900,.02Z"/><g><path class="cls-4" d="M301.12,687.47c0-4.04-1.58-7.74-4.75-11.08-4.84-4.92-11.17-7.39-18.99-7.39-5.45,0-10.42,1.36-14.9,4.09-5.89,3.69-8.84,8.49-8.84,14.38,0,1.76,.53,3.43,1.58,5.01,2.37,3.52,8.57,7.21,18.6,11.08,11.17,4.4,17.85,7.12,20.05,8.18,10.11,5.01,15.17,10.99,15.17,17.94-.09,5.36-2.46,10.29-7.12,14.77-6.42,5.98-14.6,8.97-24.53,8.97-8.44,0-15.74-2.2-21.9-6.59-6.51-4.75-9.76-10.46-9.76-17.15h5.28c.09,4.13,1.89,7.87,5.41,11.21,5.36,4.84,12.35,7.25,20.97,7.25,6.24,0,11.87-1.45,16.88-4.35,6.33-3.78,9.5-8.48,9.5-14.11,0-1.85-.57-3.6-1.71-5.28-2.37-3.52-8.57-7.25-18.6-11.21-11.17-4.31-17.81-6.99-19.92-8.05-10.11-4.92-15.17-10.82-15.17-17.67,0-5.45,2.07-10.33,6.2-14.64,5.8-6.07,13.41-9.1,22.82-9.1,7.47,0,13.98,2.07,19.52,6.2,6.33,4.66,9.5,10.51,9.5,17.54h-5.28Z"/><path class="cls-4" d="M382.9,663.73h2.64v5.28h-31.52v84.41h-5.28v-84.41h-31.79v-5.28h65.95Z"/><path class="cls-4" d="M398.73,663.86h5.54l-.13,2.64-.13,57.9c0,5.63,1.98,10.64,5.94,15.04,5.28,5.8,12.09,8.71,20.44,8.71,6.33,0,12-1.85,17.01-5.54,6.24-4.75,9.36-10.82,9.36-18.2v-60.54h5.54l-.13,2.64-.13,57.9c0,7.21-2.59,13.59-7.78,19.12-6.33,6.59-14.29,9.89-23.87,9.89-8.18,0-15.35-2.55-21.5-7.65-6.77-5.8-10.16-12.93-10.16-21.37v-60.54Z"/><path class="cls-4" d="M485.78,753.42v-89.69h34.56c9.85,.97,18.11,5.5,24.8,13.58,7.21,8.88,10.29,19.3,9.23,31.26,.97,11.52-1.98,21.76-8.84,30.73-6.68,8.53-15.08,13.24-25.19,14.11h-34.56Zm34.16-5.28c8.26-.79,15.25-4.66,20.97-11.61,6.33-7.91,9.06-17.23,8.18-27.96v-.26c.79-9.85-1.54-18.6-6.99-26.25-5.72-7.91-13.1-12.27-22.16-13.06h-28.89v79.14h28.89Z"/><path class="cls-4" d="M576.26,663.73h5.28v89.69h-5.28v-89.69Z"/><path class="cls-4" d="M613.85,676.39c7.74-8.44,16.93-12.66,27.57-12.66s19.83,4.22,27.57,12.66c8,8.79,12,19.52,12,32.18s-4,23.39-12,32.18c-7.74,8.44-16.93,12.66-27.57,12.66-10.64-.09-19.83-4.31-27.57-12.66-8-8.79-12-19.52-12-32.18s4-23.39,12-32.18Zm3.17,59.88c6.77,7.91,14.9,11.87,24.4,11.87s16.88-3.6,23.48-10.82c7.21-7.83,10.82-17.41,10.82-28.75,0-10.73-3.3-19.96-9.89-27.7-6.77-7.91-14.9-11.87-24.4-11.87-8.97,.09-16.8,3.69-23.48,10.82-7.21,7.83-10.82,17.41-10.82,28.75,0,10.73,3.3,19.96,9.89,27.7Z"/></g><path class="cls-2" d="M182.34,562.52h47.79c1.5,74.2-93.8,77.61-96.23,3.21-1.09-51.61,61.35-75.72,89.49-31.11l-5.77,2.89c-24.72-39.09-78.76-15.88-77.3,28.23,1,61.75,79.6,64.45,83.4,3.21h-41.38v-6.42Z"/><path class="cls-2" d="M263.44,569.69c-1.09,2.44-21.59,49.55-22.24,50.57h7.06l.8-1.92,21.03-47.99c-2.23-.08-4.44-.31-6.64-.65Z"/><path class="cls-2" d="M338.87,615.77l-20.42-46.68c-.94,.03-1.89,.1-2.83,.23,.31-.04,.61-.08,.92-.12-1.58,.21-3.16,.46-4.76,.48l21.32,48.65,.8,1.92h7.06l-2.08-4.49Z"/><path class="cls-2" d="M293.96,513.13c-.22-.67-.69-1.31-1.02-1.92h-3.95l-.8,1.92-19.68,44.99h.53c1.05-.82,2.6-.74,3.68-.02,.91,0,1.82,0,2.73,0l15.63-35.67,15.71,35.86c2.22-.41,4.53-.08,6.78-.36l-19.6-44.8Z"/><path class="cls-2" d="M418.58,571.83c6.73,6.85,15.3,27.77,21.17,48.43h-6.74c-8.12-24-10.44-38.2-27.42-51.32h-40.74v51.32h-6.42c-.04-29.39,.06-79.46,.16-108.9,16.79,1.66,54.97-5.34,68.8,6.73,20.26,14.51,10.85,45.78-12.83,49.88,1.39,1.18,2.73,2.46,4.01,3.85Zm-12.03-9.3c18.7,1.08,34.2-20.54,20.53-35.77-9.83-14.87-47.41-7.5-62.23-9.14v45.07h19.25l.16-.16h22.29Z"/><path class="cls-2" d="M536.45,527.72c-15.51-22.53-49.52-15.6-72.17-16.52v24.63h6.41v-18.21h35.12c22.83,1.54,37.92,25.84,35.44,48.11,2.54,22.47-12.81,46.21-35.44,48.11h-35.12v-65.17c-2.14,.04-4.3-.1-6.41-.47v72.05c22.76-.91,57.66,6.12,72.65-17.16,15.48-20.81,15.63-55.09-.48-75.38Z"/><path class="cls-2" d="M650.32,511.2v6.42h-70.57v44.91h51.64v6.42h-51.64v44.91h70.57v6.42h-76.98v-109.06h76.98Z"/><path class="cls-2" d="M675.98,587.91v32.35h6.42v-31.88c-2.13-.13-4.27-.39-6.42-.47Z"/><path class="cls-2" d="M749.76,511.2v3.21l-.16,92.7c-1.3-1.75-67.49-94.25-68.8-95.91h-4.81v65.09h6.42v-51.94c1.3,1.75,67.49,94.25,68.8,95.91h4.81v-3.21l.16-102.64v-3.21h-6.41Z"/><text class="cls-1" transform="translate(449.42 566.6) scale(1.29 1)"><tspan x="0" y="0">-</tspan></text><text class="cls-1" transform="translate(449.2 556.36) scale(1.29 1)"><tspan x="0" y="0">-</tspan></text><text class="cls-1" transform="translate(662.17 595.79) scale(1.29 1)"><tspan x="0" y="0">-</tspan></text><text class="cls-1" transform="translate(662.17 606.31) scale(1.29 1)"><tspan x="0" y="0">-</tspan></text><text class="cls-1" transform="translate(249.39 587.91) scale(1.29 1)"><tspan x="0" y="0">-</tspan></text><text class="cls-1" transform="translate(249.39 577.39) scale(1.29 1)"><tspan x="0" y="0">-</tspan></text><text class="cls-1" transform="translate(296.71 577.39) scale(1.29 1)"><tspan x="0" y="0">-</tspan></text><text class="cls-1" transform="translate(296.34 587.91) scale(1.29 1)"><tspan x="0" y="0">-</tspan></text><rect class="cls-4" x="332.03" y="129.09" width="7.76" height="110.52"/><rect class="cls-4" x="332.03" y="252.61" width="7.76" height="199.76"/><rect class="cls-4" x="311.34" y="237.77" width="51.72" height="5.25"/><rect class="cls-4" x="311.34" y="249.9" width="51.72" height="5.25"/><rect class="cls-4" x="548.18" y="128.63" width="7.76" height="110.98"/><rect class="cls-4" x="548.18" y="252.61" width="7.76" height="199.29"/><rect class="cls-4" x="527.49" y="237.3" width="51.72" height="5.25"/><rect class="cls-4" x="527.49" y="249.43" width="51.72" height="5.25"/><rect class="cls-4" x="655.49" y="129.53" width="7.76" height="132.08"/><rect class="cls-4" x="655.49" y="275.61" width="7.76" height="176.76"/><rect class="cls-4" x="633.51" y="259.18" width="51.72" height="5.25"/><rect class="cls-4" x="633.51" y="272.11" width="51.72" height="5.25"/><rect class="cls-4" x="223.5" y="126.26" width="7.76" height="133.35"/><rect class="cls-4" x="223.5" y="271.61" width="7.76" height="180.07"/><rect class="cls-4" x="201.51" y="255.91" width="51.72" height="5.25"/><rect class="cls-4" x="201.51" y="268.84" width="51.72" height="5.25"/><rect class="cls-4" x="440.73" y="129.09" width="7.76" height="148.52"/><rect class="cls-4" x="440.73" y="290.61" width="7.76" height="161.76"/><rect class="cls-4" x="418.75" y="287.63" width="51.72" height="5.25"/><rect class="cls-4" x="418.75" y="274.7" width="51.72" height="5.25"/></g></g></svg>