<?xml version="1.0" encoding="utf-8"?>
<!-- Generator: Adobe Illustrator 26.2.1, SVG Export Plug-In . SVG Version: 6.00 Build 0)  -->
<svg version="1.1" id="Calque_1" xmlns="http://www.w3.org/2000/svg" xmlns:xlink="http://www.w3.org/1999/xlink" x="0px" y="0px"
	 viewBox="0 0 700 700" style="enable-background:new 0 0 700 700;" xml:space="preserve">
<g>
	<path d="M347.2,529.6c-135.6,0-246-110.4-246-246s110.4-246,246-246c135.6,0,246,110.4,246,246
		C593.2,419.2,482.8,529.6,347.2,529.6L347.2,529.6z M347.2,43.2c-132.6,0-240.4,107.8-240.4,240.4S214.6,524,347.2,524
		s240.4-107.8,240.4-240.4S479.8,43.2,347.2,43.2L347.2,43.2z"/>
	<path d="M265.1,166.5v135c-1-0.1-1.8-0.2-2.7-0.2c-1,0-1.9,0.1-2.8,0.2h-0.1v-135L265.1,166.5z"/>
	<path d="M265.1,366.2v34.5h-5.6v-34.5h0.1c0.9,0.1,1.8,0.2,2.8,0.2C263.3,366.3,264.1,366.3,265.1,366.2z"/>
	<path d="M265.1,306.8c-1-0.1-1.8-0.2-2.8-0.2s-1.9,0.1-2.8,0.2c-13.7,1.4-24.5,13-24.5,27.1c0,14.1,10.8,25.7,24.5,27.1
		c0.9,0.1,1.8,0.2,2.8,0.2s1.8-0.1,2.8-0.2c13.7-1.4,24.4-13,24.4-27.1C289.5,319.9,278.8,308.2,265.1,306.8z M265.1,355.4
		c-0.9,0.2-1.8,0.2-2.8,0.2s-1.9-0.1-2.8-0.2c-10.6-1.3-18.9-10.5-18.9-21.4c0-11,8.2-20.1,18.9-21.4c0.9-0.2,1.8-0.2,2.8-0.2
		s1.9,0.1,2.8,0.2c10.6,1.3,18.8,10.5,18.8,21.4C283.9,344.9,275.7,354,265.1,355.4z"/>
	<path d="M435,166.5v135c-1-0.1-1.8-0.2-2.7-0.2c-1,0-1.9,0.1-2.8,0.2h-0.1v-135L435,166.5z"/>
	<path d="M435,366.2v34.5h-5.6v-34.5h0.1c0.9,0.1,1.8,0.2,2.8,0.2C433.1,366.3,434,366.3,435,366.2z"/>
	<path d="M435,306.8c-1-0.1-1.8-0.2-2.8-0.2s-1.9,0.1-2.8,0.2c-13.7,1.4-24.5,13-24.5,27.1c0,14.1,10.8,25.7,24.5,27.1
		c0.9,0.1,1.8,0.2,2.8,0.2s1.8-0.1,2.8-0.2c13.7-1.4,24.4-13,24.4-27.1C459.4,319.9,448.6,308.2,435,306.8z M435,355.4
		c-0.9,0.2-1.8,0.2-2.8,0.2s-1.9-0.1-2.8-0.2c-10.6-1.3-18.9-10.5-18.9-21.4c0-11,8.2-20.1,18.9-21.4c0.9-0.2,1.8-0.2,2.8-0.2
		s1.9,0.1,2.8,0.2c10.6,1.3,18.8,10.5,18.8,21.4C453.8,344.9,445.5,354,435,355.4z"/>
	<path d="M350,400.7v-135c-1,0.1-1.8,0.2-2.7,0.2c-1,0-1.9-0.1-2.8-0.2h-0.1v135L350,400.7z"/>
	<path d="M350,201v-34.5h-5.6V201h0.1c0.9-0.1,1.8-0.2,2.8-0.2C348.2,200.9,349.1,200.9,350,201z"/>
	<path d="M374.5,233.3c0-14.1-10.8-25.7-24.4-27.1c-1-0.1-1.8-0.2-2.8-0.2s-1.9,0.1-2.8,0.2c-13.7,1.4-24.5,13-24.5,27.1
		c0,14.1,10.8,25.7,24.5,27.1c0.9,0.1,1.8,0.2,2.8,0.2s1.8-0.1,2.8-0.2C363.7,259,374.5,247.3,374.5,233.3z M368.8,233.3
		c0,11-8.2,20.1-18.8,21.4c-0.9,0.2-1.8,0.2-2.8,0.2s-1.9-0.1-2.8-0.2c-10.6-1.3-18.9-10.5-18.9-21.4c0-11,8.2-20.1,18.9-21.4
		c0.9-0.2,1.8-0.2,2.8-0.2s1.9,0.1,2.8,0.2C360.6,213.2,368.8,222.3,368.8,233.3z"/>
</g>
</svg>
